<?xml version="1.0" encoding="UTF-8" standalone="no"?>
<!DOCTYPE svg PUBLIC "-//W3C//DTD SVG 1.1//EN" "http://www.w3.org/Graphics/SVG/1.1/DTD/svg11.dtd">
<svg xmlns="http://www.w3.org/2000/svg" version="1.1" viewBox="0.00 0.00 360.00 360.00">
<path fill="#000000" d="
  M 69.13 62.78
  C 73.55 62.80 77.76 64.30 79.48 68.72
  Q 85.70 84.81 91.83 100.87
  Q 92.04 101.43 92.64 101.43
  C 161.96 101.94 231.29 100.79 300.61 101.49
  C 311.73 101.61 315.21 108.11 312.11 118.24
  Q 297.98 164.39 283.77 210.51
  Q 281.33 218.41 272.50 218.42
  Q 205.28 218.50 138.07 218.50
  Q 137.75 218.50 137.47 218.34
  Q 137.22 218.19 136.90 218.25
  A 0.65 0.65 0.0 0 0 136.41 219.12
  L 141.84 233.44
  A 0.78 0.77 79.5 0 0 142.56 233.94
  C 181.53 234.15 225.73 233.39 259.50 234.00
  C 282.65 234.42 295.75 260.19 285.90 280.23
  C 280.09 292.05 265.74 299.46 252.55 296.88
  C 233.34 293.12 223.15 274.54 228.26 256.07
  Q 228.40 255.58 227.88 255.58
  L 165.02 255.47
  Q 164.41 255.47 164.57 256.05
  C 168.47 270.14 163.65 284.21 151.69 292.28
  C 142.82 298.26 129.91 298.98 120.20 293.75
  C 98.06 281.83 97.77 249.82 119.87 237.79
  Q 120.50 237.45 120.25 236.78
  L 62.82 84.69
  A 0.67 0.66 79.8 0 0 62.20 84.25
  Q 49.40 84.24 36.40 84.25
  C 20.99 84.26 20.42 62.82 36.67 62.76
  Q 52.91 62.71 69.13 62.78
  Z
  M 112.56 155.94
  A 0.51 0.51 0.0 0 0 113.03 156.27
  L 161.97 156.24
  A 0.51 0.51 0.0 0 0 162.48 155.69
  L 159.97 123.47
  A 0.51 0.51 0.0 0 0 159.46 123.00
  L 100.90 123.00
  A 0.51 0.51 0.0 0 0 100.42 123.69
  L 112.56 155.94
  Z
  M 220.92 123.04
  L 171.84 122.96
  A 0.24 0.24 0.0 0 0 171.60 123.20
  L 171.57 139.16
  A 17.10 3.34 -89.9 0 0 174.88 156.26
  L 217.76 156.34
  A 17.10 3.34 -89.9 0 0 221.13 139.24
  L 221.16 123.28
  A 0.24 0.24 0.0 0 0 220.92 123.04
  Z
  M 277.55 156.27
  A 0.59 0.59 0.0 0 0 278.12 155.85
  L 287.97 123.76
  A 0.59 0.59 0.0 0 0 287.40 123.00
  L 233.21 123.00
  A 0.59 0.59 0.0 0 0 232.62 123.55
  L 230.17 155.61
  A 0.59 0.59 0.0 0 0 230.76 156.24
  L 277.55 156.27
  Z
  M 163.39 167.63
  A 0.52 0.52 0.0 0 0 162.87 167.15
  L 117.55 167.08
  A 0.52 0.52 0.0 0 0 117.07 167.78
  L 127.85 196.44
  A 0.52 0.52 0.0 0 0 128.34 196.78
  L 165.08 196.73
  A 0.52 0.52 0.0 0 0 165.60 196.17
  L 163.39 167.63
  Z
  M 218.46 167.74
  A 0.45 0.45 0.0 0 0 218.01 167.26
  L 174.61 167.16
  A 0.45 0.45 0.0 0 0 174.16 167.65
  L 176.40 196.38
  A 0.45 0.45 0.0 0 0 176.85 196.80
  L 215.79 196.74
  A 0.45 0.45 0.0 0 0 216.24 196.33
  L 218.46 167.74
  Z
  M 274.52 167.61
  A 0.34 0.34 0.0 0 0 274.20 167.17
  L 229.57 167.27
  A 0.34 0.34 0.0 0 0 229.24 167.58
  L 227.05 196.40
  A 0.34 0.34 0.0 0 0 227.39 196.77
  L 265.31 196.77
  A 0.34 0.34 0.0 0 0 265.63 196.53
  L 274.52 167.61
  Z
  M 144.61 265.61
  A 9.95 9.95 0.0 0 0 134.66 255.66
  A 9.95 9.95 0.0 0 0 124.71 265.61
  A 9.95 9.95 0.0 0 0 134.66 275.56
  A 9.95 9.95 0.0 0 0 144.61 265.61
  Z
  M 268.03 265.64
  A 9.93 9.93 0.0 0 0 258.10 255.71
  A 9.93 9.93 0.0 0 0 248.17 265.64
  A 9.93 9.93 0.0 0 0 258.10 275.57
  A 9.93 9.93 0.0 0 0 268.03 265.64
  Z"
/>
</svg>
